<?xml version="1.0" encoding="utf-8"?>
<!-- Generator: Adobe Illustrator 16.0.0, SVG Export Plug-In . SVG Version: 6.00 Build 0)  -->
<!DOCTYPE svg PUBLIC "-//W3C//DTD SVG 1.1//EN" "http://www.w3.org/Graphics/SVG/1.1/DTD/svg11.dtd">
<svg version="1.1" id="Filled_Version" xmlns="http://www.w3.org/2000/svg" xmlns:xlink="http://www.w3.org/1999/xlink" x="0px"
	 y="0px" width="24px" height="24px" viewBox="0 0 24 24" enable-background="new 0 0 24 24" xml:space="preserve">
<path d="M21.14,4.237c-0.47,1.331-1.426,3.465-2.916,4.21c-0.107,0.054-0.23,0.066-0.345,0.038
	c-1.057-0.265-2.127,0.126-2.674,0.438c0.23,0.311,0.487,0.847,0.733,1.774c0.213,0.075,0.628-0.038,0.837-0.145
	c0.193-0.097,0.425-0.06,0.578,0.094c1.213,1.213-0.359,2.848-1.299,3.824c-0.166,0.173-0.378,0.393-0.496,0.536
	c0.04,0.038,0.087,0.079,0.124,0.111c0.228,0.199,0.541,0.471,0.557,0.902c0.01,0.287-0.12,0.567-0.386,0.833
	c-0.519,0.519-1.042,0.823-1.367,0.981C14.343,19.536,13.09,20.5,11,20.5c-0.976,0-2-2.493-2-3c0-0.368,0.16-0.69,0.303-0.974
	C9.399,16.333,9.5,16.132,9.5,16c-0.023-0.171-0.43-0.722-0.854-1.146C8.553,14.761,8.5,14.632,8.5,14.5
	c0-0.43-0.077-0.72-0.229-0.863c-0.251-0.237-0.849-0.202-1.478-0.167C6.534,13.484,6.267,13.5,6,13.5c-1.582,0-2-1.636-2-2.5
	c0-0.159,0.033-3.917,2.901-4.49c1.308-0.263,2.19-0.185,2.703,0.236c0.181,0.148,0.29,0.323,0.346,0.483
	c0.526,0.39,1.47,0.17,2.309-0.025c0.277-0.064,0.546-0.127,0.795-0.164c0.093-0.846,0.096-1.663,0.009-2.019
	c-0.613,0.258-1.222,0.256-1.698-0.009c-0.493-0.274-0.8-0.795-0.862-1.467c-0.134-1.438,2.641-2.557,4.547-3.152
	C14.074,0.138,13.053,0,12,0C5.383,0,0,5.384,0,12s5.383,12,12,12c6.616,0,12-5.384,12-12C24,9.041,22.921,6.331,21.14,4.237z"/>
</svg>
