<?xml version="1.0" encoding="UTF-8" standalone="no"?>
<!-- Generator: Adobe Illustrator 19.2.1, SVG Export Plug-In . SVG Version: 6.00 Build 0)  -->
<svg version="1.1"
     id="Layer_1"
     xmlns="http://www.w3.org/2000/svg"
     xmlns:xlink="http://www.w3.org/1999/xlink"
     x="0px"
     y="0px"
     viewBox="0 0 32 32"
     style="enable-background:new 0 0 32 32;"
     xml:space="preserve"
>
    <style type="text/css">
        .st0{clip-path:url(#SVGID_2_);}
        .st1{fill:#005B82;}
        .st2{fill:#C30000;}
        .st3{fill:#FFFFFF;}
    </style>
    <title>varsler styleguide 210416</title>
    <g>
        <g>
            <defs>
                <rect id="SVGID_1_" width="32" height="32"/>
            </defs>
            <clipPath id="SVGID_2_">
                <use xlink:href="#SVGID_1_"  style="overflow:visible;"/>
            </clipPath>
            <g class="st0">
                <g>
                    <g>
                        <path class="st1" d="M28.8,23.7c-1.6,0-2.8-1.4-2.8-3.1v-5.5c0-4.5-2.5-8.6-6.3-10.3c-0.4-1.9-2-3.3-3.8-3.3s-3.4,1.4-3.8,3.3
                            c-3.8,1.7-6.3,5.8-6.3,10.3v5.5c0,1.7-1.3,3.1-2.8,3.1c-0.3,0-0.6,0.3-0.6,0.6c0,0.3,0.3,0.6,0.6,0.6h26c0.3,0,0.6-0.3,0.6-0.6
                            C29.4,23.9,29.1,23.7,28.8,23.7z"
                        />
                    </g>
                    <g>
                        <path
                                class="st1" d="M19.2,26.1h-6.8c-0.3,0-0.6,0.3-0.6,0.5c0,2.2,1.8,3.9,4,3.9s4-1.7,4-3.9C19.8,26.4,19.5,26.1,19.2,26.1z"
                        />
                    </g>
                </g>
                <g>
                    <path class="st2" d="M24.2,16.1L24.2,16.1c-4.5,0-8.2-3.7-8.2-8.2l0,0c0-4.5,3.7-8.2,8.2-8.2l0,0c4.5,0,8.2,3.7,8.2,8.2l0,0
                        C32.4,12.4,28.8,16.1,24.2,16.1z"
                    />
                    <path class="st3" d="M24.2,16.5c-4.8,0-8.7-3.9-8.7-8.7s4-8.6,8.7-8.6s8.7,3.9,8.7,8.7S29,16.5,24.2,16.5z M24.2,0.2
                        c-4.3,0-7.7,3.5-7.7,7.7s3.5,7.7,7.7,7.7c4.3,0,7.7-3.5,7.7-7.7S28.5,0.2,24.2,0.2z"
                    />
                </g>
                <circle
                    class="st3" cx="24.2" cy="8" r="1.8"
                />
            </g>
        </g>
    </g>
</svg>