<?xml version="1.0" encoding="UTF-8" standalone="no"?>
<svg id="Layer_1" xmlns="http://www.w3.org/2000/svg" viewBox="0 0 24 24">
    <defs>
        <style>
            .cls-1 {
            fill: #c30000;
            }

            .cls-2 {
            fill: #0067c5;
            }

            .cls-3 {
            fill: #fff;
            }
        </style>
    </defs>
    <title>alarm-new</title>
    <ellipse class="cls-1" cx="17.35" cy="5.89" rx="6.08" ry="5.94"/>
    <path class="cls-2" d="M23.06,17.62H22.92a2.28,2.28,0,0,1-2.21-2.12,0.49,0.49,0,0,0,0-.12V12a7.17,7.17,0,0,1-3.36.83,7,7,0,0,1-7.1-7A6.89,6.89,0,0,1,12.86.5a3.33,3.33,0,0,0-1.68,0A3.37,3.37,0,0,0,8.91,2.82a8.19,8.19,0,0,0-5.35,7.59v5a2.28,2.28,0,0,1-2.22,2.22H1.21a0.5,0.5,0,1,0,0,1H23.06A0.51,0.51,0,0,0,23.06,17.62Z"/>
    <path class="cls-2" d="M15.08,19.58H9.36a0.5,0.5,0,0,0-.5.5h0a3.28,3.28,0,0,0,3.26,3.2h0.17a3.28,3.28,0,0,0,3.28-3.2A0.5,0.5,0,0,0,15.08,19.58Z"/>
    <path class="cls-3" d="M17.35-.05a6,6,0,0,1,6.08,5.94,5.9,5.9,0,0,1-2.72,4.95V12a6.94,6.94,0,0,0,3.74-6.13,7,7,0,0,0-7.1-7A7.15,7.15,0,0,0,12.86.5,3.36,3.36,0,0,1,14,1,6.15,6.15,0,0,1,17.35-.05Z"/>
    <path id="Fill-10" class="cls-3" d="M18.93,6a1.49,1.49,0,1,1-1.49-1.45A1.47,1.47,0,0,1,18.93,6"/>
</svg>