<?xml version="1.0" encoding="UTF-8" standalone="no"?>
<svg id="Layer_1" xmlns="http://www.w3.org/2000/svg" viewBox="0 0 24 24">
    <defs>
        <style>
            .cls-1 {
            fill: #0067c5;
            }
        </style>
    </defs>
    <title>alarm_hover</title>
    <g>
        <path class="cls-1" d="M23,17.68H22.86a2.28,2.28,0,0,1-2.21-2.12,0.49,0.49,0,0,0,0-.12v-5a8.2,8.2,0,0,0-5.34-7.56,3.37,3.37,0,0,0-6.46,0A8.19,8.19,0,0,0,3.5,10.47v5a2.28,2.28,0,0,1-2.22,2.22H1.15a0.5,0.5,0,0,0,0,1H23A0.5,0.5,0,0,0,23,17.68Z"/>
        <path class="cls-1" d="M15,19.64H9.3a0.5,0.5,0,0,0-.5.51,3.28,3.28,0,0,0,3.26,3.2h0.17a3.28,3.28,0,0,0,3.28-3.2A0.5,0.5,0,0,0,15,19.64Z"/>
    </g>
</svg>
