<?xml version="1.0" encoding="utf-8"?>
<!-- Generator: Adobe Illustrator 19.2.1, SVG Export Plug-In . SVG Version: 6.00 Build 0)  -->
<svg version="1.1" id="Layer_1" xmlns="http://www.w3.org/2000/svg" xmlns:xlink="http://www.w3.org/1999/xlink" x="0px" y="0px"
     viewBox="0 0 32 32" style="enable-background:new 0 0 32 32;" xml:space="preserve">
<style type="text/css">
	.st0{fill:#005B82;}
</style>
    <title>varsler styleguide 210416</title>
    <g>
	<g>
		<path class="st0" d="M28.8,23.7c-1.6,0-2.8-1.4-2.8-3.1v-5.5c0-4.5-2.5-8.6-6.3-10.3c-0.4-1.9-2-3.3-3.8-3.3s-3.4,1.4-3.8,3.3
			c-3.8,1.7-6.3,5.8-6.3,10.3v5.5c0,1.7-1.3,3.1-2.8,3.1c-0.3,0-0.6,0.3-0.6,0.6c0,0.3,0.3,0.6,0.6,0.6h26c0.3,0,0.6-0.3,0.6-0.6
			C29.4,23.9,29.1,23.7,28.8,23.7z"/>
	</g>
        <g>
		<path class="st0" d="M19.2,26.1h-6.8c-0.3,0-0.6,0.3-0.6,0.5c0,2.2,1.8,3.9,4,3.9s4-1.7,4-3.9C19.8,26.4,19.5,26.1,19.2,26.1z"/>
	</g>
</g>
</svg>