<?xml version="1.0" encoding="UTF-8" standalone="no"?>
<svg contentScriptType="text/ecmascript" width="24"
     xmlns:xlink="http://www.w3.org/1999/xlink" zoomAndPan="magnify"
     contentStyleType="text/css" viewBox="0 0 24 24" height="24"
     preserveAspectRatio="xMidYMid meet" xmlns="http://www.w3.org/2000/svg"
     version="1.0">
    <g fill="#404040">
        <path stroke-linecap="round" fill="none" stroke-linejoin="round"
              d="M9.89 2.111c-2.147-2.147-5.63-2.147-7.778 0-2.149 2.15-2.147 5.633 0 7.779l12 12c2.147 2.147 5.63 2.146 7.778-.001 2.147-2.146 2.147-5.631 0-7.777l-12-12.001zM5.636 13.416l7.777-7.779 4.951 4.95-7.777 7.779z"
              stroke="#404040" stroke-miterlimit="10"/>
        <path d="M4.223 7.966c-.128 0-.256.049-.354.146-.195.195-.195.512 0 .707.098.098.226.146.354.146s.256-.049.354-.146c.196-.195.196-.512 0-.707-.098-.097-.226-.146-.354-.146zM6.344 5.844c-.128 0-.256.049-.354.147-.195.193-.195.512 0 .707.098.098.226.146.354.146s.256-.048.353-.146c.195-.195.195-.514 0-.707-.097-.098-.225-.147-.353-.147zM3.869 5.49c-.128 0-.256.048-.354.146-.195.195-.195.512 0 .709.098.098.226.146.354.146s.256-.049.354-.146c.196-.197.196-.514 0-.709-.098-.098-.226-.146-.354-.146zM5.99 3.37c-.128 0-.256.049-.354.146-.195.195-.195.512 0 .706.098.099.226.148.354.148s.256-.049.354-.148c.195-.194.195-.511 0-.706-.098-.097-.226-.146-.354-.146zM6.697 8.317c-.128 0-.256.051-.354.148-.195.195-.195.512 0 .707.098.098.226.146.354.146s.256-.049.354-.146c.195-.195.195-.512 0-.707-.098-.097-.226-.148-.354-.148zM8.818 6.198c-.128 0-.256.049-.354.146-.194.196-.194.511.001.706.098.1.226.148.354.148s.255-.049.353-.148c.196-.194.196-.51 0-.705-.098-.098-.226-.147-.354-.147zM8.465 3.722c-.128 0-.256.049-.354.146-.195.197-.195.514 0 .709.098.098.226.146.354.146s.256-.049.354-.146c.195-.195.195-.512 0-.709-.098-.097-.226-.146-.354-.146zM15.536 19.28c-.128 0-.256.048-.354.146-.195.194-.195.511 0 .708.098.098.226.145.354.145s.256-.047.354-.145c.195-.197.195-.514 0-.708-.098-.098-.226-.146-.354-.146zM17.657 17.157c-.128 0-.256.05-.354.146-.196.195-.196.512 0 .708.098.098.226.146.354.146s.256-.049.354-.146c.195-.196.195-.513 0-.708-.098-.096-.226-.146-.354-.146zM18.011 19.632c-.128 0-.256.049-.354.146-.195.197-.195.514 0 .707.098.098.226.146.354.146s.256-.049.354-.146c.196-.193.196-.51 0-.707-.098-.097-.226-.146-.354-.146zM20.133 17.512c-.128 0-.256.049-.354.146-.195.194-.195.511 0 .708.098.097.226.146.354.146s.256-.049.354-.146c.195-.197.195-.514 0-.708-.098-.097-.226-.146-.354-.146zM15.183 16.804c-.128 0-.256.049-.354.146-.195.195-.195.513 0 .708.098.097.226.146.354.146s.256-.049.354-.146c.195-.195.195-.513 0-.708-.099-.097-.226-.146-.354-.146zM17.304 14.683c-.128 0-.256.049-.354.146-.195.196-.195.512 0 .707.098.098.226.146.354.146s.256-.049.354-.146c.196-.195.196-.511 0-.707-.098-.098-.226-.146-.354-.146zM19.779 15.036c-.128 0-.256.049-.354.146-.195.195-.195.512 0 .707.098.098.226.146.354.146s.255-.049.353-.146c.196-.195.196-.512 0-.707-.098-.097-.225-.146-.353-.146z"/>
    </g>
</svg>