<svg xmlns="http://www.w3.org/2000/svg" width="163" height="188" viewBox="0 0 163 188" fill="none" aria-hidden="true">
<path fill-rule="evenodd" clip-rule="evenodd" d="M117.584 187.022L101.087 173.209C95.2246 175.48 88.5965 176.758 81.5783 176.758C74.5611 176.758 67.9337 175.48 62.0717 173.21L45.5801 187.018C45.0119 187.494 44.1421 187.156 44.0433 186.422L39.2042 150.443C38.5982 148.233 38.2796 145.942 38.2796 143.593C38.2796 125.277 57.6651 110.428 81.5783 110.428C105.492 110.428 124.877 125.277 124.877 143.593C124.877 143.905 124.871 144.216 124.86 144.525L124.877 144.514L124.854 144.681C124.785 146.32 124.561 147.93 124.192 149.501L119.121 186.428C119.02 187.161 118.151 187.497 117.584 187.022Z" fill="#262626"/>
<circle cx="60.1546" cy="148.892" r="9.44118" transform="rotate(-180 60.1546 148.892)" fill="#FFC166"/>
<circle cx="60.1626" cy="148.892" r="7.76806" transform="rotate(-180 60.1626 148.892)" fill="#262626"/>
<ellipse cx="65.7647" cy="153.39" rx="1.6787" ry="1.6787" transform="rotate(-180 65.7647 153.39)" fill="white"/>
<circle cx="102.539" cy="148.892" r="9.44118" transform="rotate(-180 102.539 148.892)" fill="#FFC166"/>
<circle cx="102.538" cy="148.892" r="7.76806" transform="rotate(-180 102.538 148.892)" fill="#262626"/>
<ellipse cx="108.149" cy="153.389" rx="1.6787" ry="1.6787" transform="rotate(-180 108.149 153.389)" fill="white"/>
<path d="M81.2048 148.2C82.7945 148.2 84.4336 147.972 85.6422 147.742C86.3039 147.615 86.528 146.82 86.0569 146.339L81.8581 142.046C81.5034 141.684 80.9169 141.694 80.5749 142.069L76.6279 146.392C76.193 146.868 76.4041 147.618 77.0355 147.75C78.126 147.977 79.6339 148.2 81.2048 148.2Z" fill="#E18071"/>
<path d="M114.883 149.352C120.297 151.964 133.19 157.04 158.037 156.443" stroke="#262626" stroke-width="0.957083" stroke-linecap="round"/>
<path d="M47.9504 149.352C42.537 151.964 29.644 157.04 4.79657 156.443" stroke="#262626" stroke-width="0.957083" stroke-linecap="round"/>
<path d="M119.345 143.996C123.813 143.837 137.309 145.435 153.258 139.534" stroke="#262626" stroke-width="0.957083" stroke-linecap="round"/>
<path d="M43.4882 143.996C39.0206 143.837 25.5247 145.435 9.57538 139.534" stroke="#262626" stroke-width="0.957083" stroke-linecap="round"/>
<path d="M121.187 147.74C127.636 149.121 144.218 150.964 161.722 147.739" stroke="#262626" stroke-width="0.882925" stroke-linecap="round"/>
<path d="M41.6467 147.74C35.198 149.121 18.6155 150.964 1.11171 147.739" stroke="#262626" stroke-width="0.882925" stroke-linecap="round"/>
<path fill-rule="evenodd" clip-rule="evenodd" d="M20.815 143.269V137.136H33.0797H45.3445H57.6093V143.269C57.6093 153.429 49.3726 161.666 39.2121 161.666C29.0517 161.666 20.815 153.429 20.815 143.269Z" fill="#D47B00"/>
<path fill-rule="evenodd" clip-rule="evenodd" d="M39.2122 161.666C48.4697 161.666 44.1314 143.269 20.815 143.269C20.815 153.429 29.0517 161.666 39.2122 161.666Z" fill="#FFAA33"/>
<path fill-rule="evenodd" clip-rule="evenodd" d="M30.1828 162.771C27.4312 161.817 24.3535 159.844 21.8349 157.022C18.0459 152.776 16.6219 147.84 17.3144 144.738C17.3744 143.11 18.0719 141.507 19.3837 140.337C21.9405 138.055 25.863 138.278 28.1448 140.835C29.0282 141.825 29.5362 143.019 29.6787 144.244C31.4232 144.212 33.1707 144.913 34.4237 146.316C35.7849 147.842 36.2547 149.853 35.8694 151.712C36.5681 152.063 37.2148 152.549 37.7684 153.169C40.0859 155.766 39.892 159.721 37.3351 162.003C35.3228 163.799 32.4465 164.023 30.1828 162.771Z" fill="#262626"/>
<path d="M89.5506 8.05C89.5506 3.60411 85.9465 0 81.5006 0C77.0547 0 73.4506 3.60411 73.4506 8.05V16.1C73.4506 16.2909 73.4573 16.4803 73.4704 16.6679C46.1525 20.5652 25.15 44.055 25.15 72.4501V83.5328C25.15 94.0228 21.9362 104.261 15.9413 112.869L2.44414 132.25C0.730703 134.71 0.526532 137.919 1.91431 140.576C3.30209 143.234 6.05185 144.9 9.05002 144.9H153.95C156.948 144.9 159.698 143.234 161.086 140.576C162.473 137.919 162.269 134.71 160.556 132.25L147.059 112.869C141.064 104.261 137.85 94.0228 137.85 83.5328V72.4501C137.85 44.0554 116.848 20.5659 89.5309 16.6681C89.544 16.4804 89.5506 16.291 89.5506 16.1V8.05Z" fill="#FFC166"/>
<path fill-rule="evenodd" clip-rule="evenodd" d="M102.849 42.421C105.052 42.6592 106.792 44.3992 107.03 46.6022L108.842 63.3596C108.882 63.7283 109.193 64.0077 109.564 64.0077C109.935 64.0077 110.246 63.7283 110.286 63.3596L112.098 46.6021C112.336 44.399 114.076 42.659 116.279 42.4209L133.036 40.6093C133.405 40.5694 133.684 40.2582 133.684 39.8873C133.684 39.5165 133.405 39.2052 133.036 39.1653L116.279 37.3538C114.076 37.1156 112.336 35.3756 112.098 33.1726L110.286 16.4146C110.246 16.0459 109.935 15.7665 109.564 15.7665C109.193 15.7665 108.882 16.0459 108.842 16.4146L107.03 33.1725C106.792 35.3755 105.052 37.1155 102.849 37.3536L86.0909 39.1653C85.7221 39.2052 85.4427 39.5165 85.4427 39.8873C85.4427 40.2582 85.7222 40.5694 86.0909 40.6093L102.849 42.421Z" fill="white"/>
</svg>