<svg width="32" height="32" viewBox="0 0 32 32" fill="none" xmlns="http://www.w3.org/2000/svg">
<rect width="32" height="32" rx="3" fill="#C50000"/>
<g clip-path="url(#clip0_1_2)">
<path fill-rule="evenodd" clip-rule="evenodd" d="M28.7885 12H26.0832C26.0832 12 25.8968 12 25.8308 12.1647L24.3338 16.75L22.8379 12.1647C22.772 12 22.5845 12 22.5845 12H17.383C17.2704 12 17.176 12.0941 17.176 12.206V13.7632C17.176 12.5279 15.8623 12 15.093 12C13.3704 12 12.2172 13.1352 11.8582 14.8611C11.8387 13.7161 11.7436 13.3059 11.4353 12.8857C11.2938 12.6799 11.0891 12.5069 10.8663 12.3637C10.4074 12.0948 9.99538 12 9.10992 12H8.07024C8.07024 12 7.88231 12 7.81601 12.1647L6.87004 14.5103V12.206C6.87004 12.0941 6.77635 12 6.66394 12H4.25814C4.25814 12 4.0724 12 4.00484 12.1647L3.02138 14.6037C3.02138 14.6037 2.92319 14.8475 3.14767 14.8475H4.0724V19.495C4.0724 19.6104 4.1632 19.7018 4.27904 19.7018H6.66394C6.77635 19.7018 6.87004 19.6104 6.87004 19.495V14.8475H7.79964C8.33309 14.8475 8.44603 14.8621 8.65358 14.9589C8.77858 15.0062 8.89119 15.1017 8.95262 15.2118C9.07839 15.4487 9.10992 15.7331 9.10992 16.5718V19.495C9.10992 19.6104 9.2025 19.7018 9.3169 19.7018H11.6027C11.6027 19.7018 11.861 19.7018 11.9632 19.4465L12.4698 18.1938C13.1434 19.1378 14.2521 19.7018 15.6299 19.7018H15.9309C15.9309 19.7018 16.1909 19.7018 16.2938 19.4465L17.176 17.2605V19.495C17.176 19.6104 17.2704 19.7018 17.383 19.7018H19.7164C19.7164 19.7018 19.9738 19.7018 20.0772 19.4465C20.0772 19.4465 21.0104 17.1284 21.014 17.1109H21.0155C21.0513 16.918 20.8078 16.918 20.8078 16.918H19.9749V12.9403L22.5953 19.4465C22.6976 19.7018 22.9556 19.7018 22.9556 19.7018H25.7121C25.7121 19.7018 25.9715 19.7018 26.0739 19.4465L28.9789 12.2495C29.0794 12 28.7885 12 28.7885 12ZM17.1757 16.918H15.6084C14.9845 16.918 14.477 16.4126 14.477 15.7877C14.477 15.1638 14.9845 14.6552 15.6084 14.6552H16.0467C16.6689 14.6552 17.1757 15.1638 17.1757 15.7877V16.918Z" fill="white"/>
</g>
<defs>
<clipPath id="clip0_1_2">
<rect width="26" height="7.71875" fill="white" transform="translate(3 12)"/>
</clipPath>
</defs>
</svg>
