<svg width="22" height="22" viewBox="0 0 22 22" fill="none" xmlns="http://www.w3.org/2000/svg">
    <circle cx="11" cy="11" r="11" fill="#C30000" />
    <path fill-rule="evenodd" clip-rule="evenodd"
        d="M19.814 8.78589H17.9828C17.9828 8.78589 17.8566 8.78589 17.812 8.89741L16.7985 12.0013L15.786 8.89741C15.7414 8.78589 15.6144 8.78589 15.6144 8.78589H12.0934C12.0172 8.78589 11.9533 8.84958 11.9533 8.92535V9.97942C11.9533 9.14327 11.064 8.78589 10.5433 8.78589C9.3772 8.78589 8.59659 9.55433 8.35354 10.7226C8.34037 9.94758 8.27598 9.66987 8.06732 9.38546C7.97147 9.24612 7.83293 9.12899 7.68208 9.03211C7.37147 8.85007 7.09257 8.78589 6.49318 8.78589H5.78939C5.78939 8.78589 5.6622 8.78589 5.61732 8.89741L4.97695 10.4852V8.92535C4.97695 8.84958 4.91354 8.78589 4.83744 8.78589H3.20891C3.20891 8.78589 3.08317 8.78589 3.03744 8.89741L2.37171 10.5484C2.37171 10.5484 2.30525 10.7135 2.4572 10.7135H3.08317V13.8594C3.08317 13.9375 3.14464 13.9994 3.22305 13.9994H4.83744C4.91354 13.9994 4.97695 13.9375 4.97695 13.8594V10.7135H5.60622C5.96732 10.7135 6.04378 10.7233 6.18427 10.7889C6.26891 10.8208 6.34513 10.8855 6.38671 10.96C6.47183 11.1204 6.49318 11.3129 6.49318 11.8806V13.8594C6.49318 13.9375 6.55586 13.9994 6.6333 13.9994H8.18062C8.18062 13.9994 8.35549 13.9994 8.42464 13.8266L8.76757 12.9786C9.22354 13.6176 9.97403 13.9994 10.9067 13.9994H11.1105C11.1105 13.9994 11.2865 13.9994 11.3561 13.8266L11.9533 12.3468V13.8594C11.9533 13.9375 12.0172 13.9994 12.0934 13.9994H13.6729C13.6729 13.9994 13.8472 13.9994 13.9172 13.8266C13.9172 13.8266 14.5489 12.2574 14.5514 12.2456H14.5523C14.5766 12.115 14.4117 12.115 14.4117 12.115H13.8479V9.42243L15.6217 13.8266C15.691 13.9994 15.8656 13.9994 15.8656 13.9994H17.7316C17.7316 13.9994 17.9072 13.9994 17.9765 13.8266L19.9429 8.95475C20.011 8.78589 19.814 8.78589 19.814 8.78589ZM11.9531 12.115H10.8921C10.4698 12.115 10.1263 11.7729 10.1263 11.3499C10.1263 10.9276 10.4698 10.5833 10.8921 10.5833H11.1888C11.61 10.5833 11.9531 10.9276 11.9531 11.3499V12.115Z"
        fill="white" />
</svg>