<svg version="1" xmlns="http://www.w3.org/2000/svg" width="933.333" height="933.333" viewBox="0 0 700.000000 700.000000"><path d="M328 .7c-29.8 2.8-42 4.7-62.5 9.7-61.9 15.2-118.1 47.2-163.2 92.8-15.8 16-21 21.9-31.8 36.3-38.3 50.9-60.9 108.1-68.7 174-1.7 14.3-1.7 59.6 0 73.5 5.6 45.4 16.9 83.4 36.1 121.2C77 585.5 145 646.6 226 677.2c58.1 22 120.6 28.1 182.8 17.7 97.9-16.3 185.3-75 238.7-160.4C676 489 694.1 435.1 699 381c1.3-14.7 1.3-48.2 0-62.5-9.2-99.5-59.4-189.1-139.8-249.3C498.5 23.8 423.8-.6 347.7.2c-8.9 0-17.8.3-19.7.5zM220.8 327.5c16.9 4.1 29.9 15.4 34.7 30.2.9 2.9 2.2 11.2 2.8 18.5l1.2 13.2 1.4-5.4c7.3-28.3 27.1-49.4 52.8-56.1 29.7-7.8 59.5 4.9 66.8 28.4 1.3 3.9 1.4 2.9 1.4-11.8.1-11.1.5-16.5 1.3-17.3.9-.9 16.3-1.2 63.3-1.2 58 0 62.3.1 63.7 1.7.9 1 9.2 25.1 18.6 53.6 9.3 28.5 17.1 52 17.4 52.2.2.2 8-23.1 17.3-51.8 9.4-28.7 17.8-53 18.8-53.9 1.6-1.7 4.5-1.8 35.7-1.8 31.3 0 34 .1 34.8 1.7.5 1 .7 2.5.4 3.3-.2.8-15.5 38.6-33.9 84-21.7 53.4-34.3 83.4-35.9 85l-2.4 2.5h-70l-2.4-2.5c-1.6-1.6-12.9-28.5-32.1-76.5-16.3-40.7-29.9-74.2-30.1-74.4-.2-.2-.4 19.7-.4 44.2V438h8.4c10.1 0 14.6.8 15.3 2.7.3.8-4.5 14.3-10.8 30.1-10 24.9-11.8 28.8-14.4 30.4-2.7 1.6-5.6 1.8-30.8 1.8-17.3 0-28.6-.4-29.8-1-1.8-1-1.9-2.4-1.9-27.8-.1-22.7-.3-26.3-1.4-24.2-.7 1.4-5.5 13-10.7 25.9-10.8 26.8-11 27.1-21.4 27.1-13.1 0-28.4-2.9-39.7-7.4-10.2-4.1-17-8.8-26.4-18.2l-9.2-9-5.8 14.5c-3.2 8-6.8 15.6-8 16.8-2.3 2.3-2.5 2.3-31.7 2.3-21.4 0-29.6-.3-30.5-1.2-.9-.9-1.2-11.9-1.2-43.2 0-24.6-.5-44.8-1.1-48.6-1.3-8.4-3.8-12.3-9.7-15.2-4.4-2.1-5.9-2.3-23.2-2.3h-18.5l-.3 54.4c-.1 38.2-.6 54.8-1.3 55.8-1.6 1.8-58.9 1.9-60.7.1-.9-.9-1.2-14.6-1.2-55.5V392H68.7c-11.2 0-13.7-.7-13.7-3.7 0-2.6 24-59.8 25.6-61 1.4-1 9.1-1.3 31.5-1.3 29.6 0 29.8 0 31.3 2.2 1.4 1.9 1.6 6.3 1.6 27.8l.1 25.5 8.4-21c12.9-32.1 13.6-33.6 15.9-34.6 3.3-1.5 44-.2 51.4 1.6z"/><path d="M334.5 389.4c-9.4 4.4-14.4 12.6-14.5 23.4 0 10.4 4.3 17.9 13.2 22.8l5.3 2.9 21.9.3 21.8.3-.4-16.3c-.4-18-1.1-20.7-6.9-27.3-1.9-2.1-5.6-4.9-8.4-6.1-4.3-2-6.6-2.4-16-2.4-9.5 0-11.7.3-16 2.4z"/></svg>