<?xml version="1.0" standalone="no"?>
<!DOCTYPE svg PUBLIC "-//W3C//DTD SVG 20010904//EN"
 "http://www.w3.org/TR/2001/REC-SVG-20010904/DTD/svg10.dtd">
<svg version="1.0" xmlns="http://www.w3.org/2000/svg"
 width="700.000000pt" height="700.000000pt" viewBox="0 0 700.000000 700.000000"
 preserveAspectRatio="xMidYMid meet">
<metadata>
Created by potrace 1.14, written by Peter Selinger 2001-2017
</metadata>
<g transform="translate(0.000000,700.000000) scale(0.100000,-0.100000)"
fill="#000000" stroke="none">
<path d="M515 6984 c-187 -40 -362 -176 -443 -345 -78 -162 -72 101 -72 -3139
0 -3243 -6 -2979 73 -3140 75 -153 217 -273 392 -332 l70 -23 2930 -3 c3281
-3 3013 -9 3175 71 119 58 229 168 287 287 79 161 73 -103 73 3140 0 3243 6
2979 -73 3140 -58 119 -168 229 -287 287 -161 79 104 73 -3147 72 -2526 -1
-2917 -3 -2978 -15z m979 -2630 c3 -9 6 -129 6 -267 0 -161 4 -246 10 -236 5
9 53 123 106 255 53 131 101 245 106 252 8 9 66 12 227 12 236 0 302 -10 393
-56 70 -36 163 -126 194 -189 30 -63 53 -182 54 -285 l1 -75 38 107 c86 239
230 392 438 465 71 25 91 28 218 28 130 0 145 -2 205 -28 121 -51 202 -128
245 -233 l25 -59 0 147 c0 80 3 153 6 162 6 14 68 16 603 16 328 0 602 -4 609
-9 7 -4 87 -234 177 -511 90 -276 165 -504 167 -505 2 -2 77 224 168 501 90
278 169 509 176 515 7 6 139 8 340 7 320 -3 329 -4 332 -23 1 -11 -141 -378
-318 -815 -237 -589 -327 -801 -346 -817 -25 -23 -28 -23 -345 -23 -259 0
-325 3 -348 14 -25 13 -59 93 -319 738 l-291 723 -1 -432 0 -433 98 0 c156 0
154 21 28 -296 -73 -184 -115 -276 -132 -291 -25 -23 -29 -23 -303 -23 -202 0
-280 3 -289 12 -9 9 -12 81 -12 262 0 153 -4 245 -10 236 -5 -9 -49 -117 -99
-240 -65 -160 -99 -232 -118 -249 -26 -23 -31 -24 -148 -18 -258 13 -447 94
-599 257 -31 34 -59 61 -60 59 -2 -2 -25 -56 -51 -119 -66 -163 -73 -176 -101
-189 -17 -7 -113 -11 -289 -11 -226 0 -266 2 -279 16 -14 13 -16 67 -16 434 0
446 -5 500 -46 549 -41 49 -97 61 -281 61 l-163 0 0 -518 c0 -390 -3 -521 -12
-530 -9 -9 -87 -12 -289 -12 -239 0 -280 2 -293 16 -14 14 -16 75 -16 529 l0
514 -112 3 c-108 3 -113 4 -116 25 -4 25 202 547 226 576 14 15 41 17 307 17
258 0 294 -2 299 -16z"/>
<path d="M3302 3764 c-86 -43 -132 -121 -132 -221 1 -75 25 -128 83 -179 65
-58 96 -64 316 -64 l191 0 0 133 c0 157 -14 214 -65 274 -57 67 -102 83 -231
83 -99 0 -116 -3 -162 -26z"/>
</g>
</svg>
