<?xml version="1.0" encoding="UTF-8"?>
<svg focusable="false"  version="1.1" viewBox="0 0 50 50" xmlns="http://www.w3.org/2000/svg" xmlns:xlink="http://www.w3.org/1999/xlink">
    <title>NAV veileder/ kvinne/50px/2</title>
    <desc>Created with Sketch.</desc>
    <defs>
        <circle id="c" cx="25" cy="25" r="25"/>
        <path id="b" d="m28.341 24.226c0.13417 0.074195 0.28572 0.11595 0.44605 0.11595 0.54866 0 0.99265-0.48689 0.99265-1.09v-4.3984c0-0.51601-0.32503-0.94741-0.76256-1.0612-0.17076-2.4631-2.5988-2.7198-3.8396-2.6884-0.43106 0.010905-18.994 0.05658-19.221 0.05658 0 0-3.1197-0.47741-3.3257 2.6713-0.37638 0.15475-0.64484 0.5534-0.64484 1.0217v4.3984c0 0.60308 0.44514 1.09 0.99265 1.09 0.12134 0 0.23755-0.023812 0.34498-0.067428 1.108 3.7947 3.3957 6.9303 6.3391 8.7812l0.010906 0.022484-0.0019687 0.046428c-2.5219 0.23348-4.6484 0.55931-5.8973 0.9084 0 0-4.1667-5.7175-3.7434-16.347 0 0 1.4984-17.86 15.763-17.685 14.264 0.17528 15.54 15.159 15.54 15.159 1.1052 4.6176 0.056827 12.876-2.808 19.05-1.4643-0.66643-3.7432-1.0673-6.3558-1.2715 2.868-1.8726 5.0911-4.9752 6.1711-8.7128z"/>
        <path id="a" d="m10.39 0.16159l-0.0010791-0.052306c0 2.9342 2.736 5.9777 6.1111 5.9777 3.3404 0 6.0548-2.9812 6.1102-5.8872 1.7479 0.46765 4.3462 1.7611 6.5069 3.8858 2.1601 2.1241 3.8828 5.3188 3.8828 7.7978v14.899h-33v-14.899c0-2.474 1.6864-5.6632 3.8073-7.7849 2.1905-2.1913 4.8444-3.5024 6.5827-3.9369z"/>
    </defs>
    <g fill="none" fill-rule="evenodd">
        <g transform="translate(-181 -208)">
            <g transform="translate(181 208)">
                <mask id="f" fill="white">
                    <use xlink:href="#c"/>
                </mask>
                <use fill="#D6897D" xlink:href="#c"/>
                <g mask="url(#f)">
                    <g transform="translate(2.4698 -9.8974)">
                        <g transform="translate(0 11.893)">
                            <g transform="translate(7.9412 3.9643)" fill="#E7E5E2">
                                <path d="m14.501 0.33036c7.0752 0 12.864 6.4472 13.507 14.662 0.46211 0.22296 0.77868 0.72393 0.77868 1.2989v4.4172c0 0.73506-0.51751 1.3488-1.1948 1.4184l-0.12877 0.0065819c-0.077845 0-0.15399-0.0071601-0.22792-0.020885-1.135 3.6778-3.3575 6.7311-6.2057 8.5998l0.14556 1.6382-8.237e-4 0.066626-1.5397 13.502h-9.7649l-0.040562-0.28367-1.8878-13.242 0.069522-1.6564c-2.8624-1.8636-5.0973-4.9217-6.239-8.6096l-0.11761 0.0055081c-0.73849 0-1.3235-0.64438-1.3235-1.425v-4.4172c0-0.52352 0.26311-0.986 0.65913-1.2339 0.61618-8.2455 6.4167-14.727 13.511-14.727z"/>
                            </g>
                            <g transform="translate(11.25 18.5)">
                                <g transform="translate(.6204 .16518)">
                                    <g transform="translate(4.3235)">
                                        <path d="m1.4365 3.4696c-0.89374 0.0654-1.1439-1.2144-0.87459-2.0502 0.050647-0.1584 0.3465-0.8796 0.87026-0.8796 0.52315 0 0.75415 0.3942 0.78626 0.462 0.38479 0.8148 0.19579 2.3958-0.78194 2.4678" fill="#635E59"/>
                                        <path d="m11.411 3.4696c0.89374 0.0654 1.1439-1.2144 0.87459-2.0502-0.050647-0.1584-0.3465-0.8796-0.87026-0.8796-0.52315 0-0.75415 0.3942-0.78626 0.462-0.38479 0.8148-0.19579 2.3958 0.78194 2.4678" fill="#635E59"/>
                                        <path d="m6.7072 4.9409c0.52561-0.078598 0.88458-0.029272 1.0131 0.12399 0.48524 0.57933 0.33003 1.1922-0.50246 1.6954-0.4377 0.26444-1.0402 0.35751-1.3591 0.22039-0.15597-0.067052-0.33836 0.0014161-0.40738 0.15293s0.0014578 0.32869 0.15743 0.39574c0.52716 0.22663 1.3378 0.10139 1.9353-0.25958 1.1313-0.68374 1.3902-1.7061 0.65519-2.5837-0.31105-0.37083-0.86166-0.44649-1.5861-0.33817-0.16857 0.025208-0.28419 0.17839-0.25824 0.34215 0.025949 0.16376 0.18364 0.27607 0.35221 0.25086z" fill="#59514B"/>
                                        <path d="m10.228 9.3153c-0.027857 0.061983-0.09174 0.18066-0.19441 0.33698-0.17379 0.26462-0.39203 0.52991-0.65709 0.7773-0.78986 0.7372-1.8179 1.1635-3.1264 1.1245-1.2758-0.038015-2.2993-0.45772-3.1018-1.1345-0.29462-0.24849-0.53785-0.51461-0.73227-0.77986-0.11465-0.15642-0.18624-0.27502-0.21755-0.33682-0.075311-0.14866-0.26042-0.20986-0.41345-0.1367-0.15303 0.073159-0.21604 0.25298-0.14072 0.40164 0.045362 0.089541 0.13364 0.23579 0.26858 0.4199 0.22156 0.30228 0.49706 0.60371 0.83048 0.88492 0.90584 0.76402 2.0635 1.2387 3.4878 1.2812 1.4832 0.044192 2.6689-0.44746 3.5733-1.2916 0.3024-0.28224 0.55097-0.5844 0.74987-0.88725 0.12094-0.18415 0.19961-0.33029 0.23976-0.41963 0.068244-0.15184-0.0031489-0.32868-0.15946-0.39497s-0.33835 0.0030589-0.40659 0.1549z" fill="#59514B"/>
                                    </g>
                                </g>
                            </g>
                            <g transform="translate(6.6176 1.3158)">
                                <mask id="e" fill="white">
                                    <use xlink:href="#b"/>
                                </mask>
                                <use fill="#38383A" xlink:href="#b"/>
                                <g fill="#F6B873" mask="url(#e)">
                                    <g transform="translate(-7.2794 -1.9737)">
                                        <rect width="46" height="52"/>
                                    </g>
                                </g>
                            </g>
                            <g transform="translate(5.9559 33.696)">
                                <g transform="translate(0 1.2174)">
                                    <mask id="d" fill="white">
                                        <use xlink:href="#a"/>
                                    </mask>
                                    <use fill="#D8A25D" xlink:href="#a"/>
                                    <g fill="#C6C2BF" mask="url(#d)">
                                        <g transform="translate(-22 -17.043)">
                                            <polygon points="0 61 77 61 77 0 0 0"/>
                                        </g>
                                    </g>
                                </g>
                            </g>
                        </g>
                        <g transform="translate(1.3235 2.6429)">
                            <g transform="translate(3.9375 12.486)">
                                <path d="m3.175 16.898c0-7.9304 6.19-14.36 13.826-14.36 7.6353 0 13.825 6.4295 13.825 14.36 0 1.5752-0.24757 3.0892-0.69923 4.5073 0.97557-1.9228 1.5269-4.0887 1.5269-6.3822 0-7.9304-6.5607-14.359-14.653-14.359-8.0936 0-14.654 6.4288-14.654 14.359 0 2.2934 0.55135 4.4594 1.5269 6.3822-0.45165-1.4181-0.69923-2.9322-0.69923-4.5073" fill="#145570"/>
                                <path d="m32.531 26.885h-2.4443c-0.62562 0-1.1375-0.50271-1.1375-1.1171v-10.006c0-0.61443 0.51188-1.1171 1.1375-1.1171h2.4443c0.62562 0 1.1375 0.50271 1.1375 1.1171v10.006c0 0.61443-0.51188 1.1171-1.1375 1.1171" fill="#38383A"/>
                                <path d="m1.5188 26.885h2.4443c0.62562 0 1.1375-0.50271 1.1375-1.1171v-10.006c0-0.61443-0.51188-1.1171-1.1375-1.1171h-2.4443c-0.62563 0-1.1375 0.50271-1.1375 1.1171v10.006c0 0.61443 0.51188 1.1171 1.1375 1.1171" fill="#38383A"/>
                                <path d="m17.001 0.46559c-2.5881 0-5.0291 0.65189-7.187 1.8012v2.3953c2.1331-1.2965 4.5814-2.0358 7.187-2.0358 2.7655 0 5.3536 0.83457 7.5764 2.2836v-2.4334c-2.2509-1.2821-4.8317-2.0109-7.5764-2.0109" fill="#38383A"/>
                                <path d="m13.948 31.688v1.7046c0 0.43634 0.36333 0.79383 0.80829 0.79383h4.4884c0.44429 0 0.80762-0.35749 0.80762-0.79383v-1.7046c0-0.43634-0.36333-0.79383-0.80762-0.79383h-4.4884c-0.44496 0-0.80829 0.35749-0.80829 0.79383" fill="#38383A"/>
                                <path d="m30.604 26.885s-0.01539-0.0013143-0.023419-0.0013143c-1.6748 2.8001-5.6681 4.8977-10.528 5.3879v0.75177c5.9679-0.084771 10.893-2.7022 11.938-6.1384h-1.3864z" fill="#145570"/>
                            </g>
                        </g>
                    </g>
                </g>
            </g>
        </g>
    </g>
</svg>
