<svg focusable="false" xmlns="http://www.w3.org/2000/svg" xmlns:xlink="http://www.w3.org/1999/xlink" viewBox="0 0 50 50"><defs><path d="M10.7054173.16720875l-.0017136-.05402308c0 3.03898824 2.8189479 6.19116216 6.2962963 6.19116216 3.4417716 0 6.2385459-3.08800394 6.2954134-6.09785423 1.8010713.48489415 4.4779942 1.82449933 6.7040884 4.02503588C32.2250559 6.43153211 34 9.74025688 34 12.3078279v15.4313025H0V12.3078279c0-2.5623804 1.7374695-5.86546732 3.92262252-8.06294991C6.17971166 1.97505338 8.91444533.61708259 10.7054173.16720875z" id="c"/><path d="M15.2712741 34.4068679c-1.641167.5910552-4.3943687 1.8830165-6.47715645 3.8449521C2.70588235 36.9078947 0 33.7143553 0 33.7143553s5.60919797-5.4274737 5.61258072-14.9201842v-.0100658C5.61258072 7.66878947 11.6618547 0 21.6281154 0c9.9676139 0 16.0168878 7.66878947 16.0168878 18.7841053h.0358572c0 9.499421 5.6132572 14.93025 5.6132572 14.93025S40.5882353 36.9078947 34.5 38.25l-.0091849.00182c-2.0116933-1.8154231-4.9293733-3.2156031-6.5167238-3.8075761l.0018351-.0006022-.0630757-.7036691.0341104-.0582787c2.9950813-1.9005129 5.3190976-5.1022318 6.4395184-8.9710127.1371634.0756792.2921014.1182662.4560141.1182662.5609173 0 1.0148253-.4966228 1.0148253-1.1117651v-4.4863521c0-.5263259-.3322968-.9663576-.7796003-1.0824521a19.10951235 19.10951235 0 00-.001243-.0182283c-14.1607512 1.567511-19.2617198-8.0637436-19.6803913-8.0643603 0 0-4.7027793 3.3552631-6.9503921 7.3444428 0 0-.34256723.7530624-.34423045.7784161-.38479205.1578433-.65925056.5644676-.65925056 1.0421818v4.4863521c0 .6151423.45508388 1.1117651 1.01482528 1.1117651.12404742 0 .24286125-.0242887.35268944-.0687766 1.13279387 3.8706426 3.47153249 7.0688911 6.48069849 8.956868l.0111494.0229338-.0283437.6668953h-.001956z" id="e"/><circle id="a" cx="25" cy="25" r="25"/></defs><g fill="none" fill-rule="evenodd"><mask id="b" fill="#fff"><use xlink:href="#a"/></mask><use fill="#C6C2BF" xlink:href="#a"/><g mask="url(#b)"><path d="M25.4106884 5.93137233c7.2326708 0 13.1503241 6.50573952 13.8073527 14.79553147.472316.2240243.7959105.7294999.7959105 1.3096071v4.4570295c0 .7416839-.5290125 1.3609074-1.221311 1.4311908l-.1316302.0066411c-.0797208 0-.1576922-.007251-.2333947-.0211492-1.1596397 3.7110171-3.4320841 6.7925696-6.3444359 8.6781095l.150031 1.6521487-.000842.0672267-1.5738668 13.6236643h-9.9818868l-.0414629-.2862234-1.9297241-13.3609024.07162806-1.6709518c-2.92661856-1.8805561-5.21156036-4.9668197-6.37853012-8.6886228l-.11986867.0067004c-.7548997 0-1.35294118-.6501818-1.35294118-1.4378319v-4.4570295c0-.5278889.26860039-.9942661.67297993-1.2445013.63076683-8.32035005 6.56018328-14.86063727 13.81199218-14.86063727z" fill="#E7E5E2"/><path d="M20.63830171 24.190062c-.93629412.07085-1.19835295-1.3156-.9162353-2.22105.05305883-.1716.363-.9529.91170588-.9529.54805883 0 .79005883.42705.82370589.5005.40311764.8827.20511764 2.59545-.81917647 2.67345M31.0879135 24.190062c.9362941.07085 1.1983529-1.3156.9162353-2.22105-.0530589-.1716-.363-.9529-.9117059-.9529-.5480588 0-.7900588.42705-.8237059.5005-.4031176.8827-.2051176 2.59545.8191765 2.67345" fill="#635E59"/><path d="M26.16002449 25.7840435c.55063766-.08514779.9266991-.03171142 1.06137766.13432721.50834624.6276054.345748 1.29158376-.52639045 1.83665443-.45854649.28647604-1.08972059.387305-1.42386789.23875487-.16339466-.07263951-.35447172.00153415-.42678254.16567151-.07231083.16413737.0015272.35608295.16492186.42872247.5522613.24551593 1.40154962.1098436 2.0274978-.28121633 1.18518444-.74071873 1.45641818-1.84831575.68638579-2.79899926-.32585957-.40173651-.9026862-.48370057-1.6615878-.3663479-.17660024.02730856-.29772524.19326005-.27054025.37066302.02718499.17740298.19238557.29907854.36898582.27176998zM29.8479988 30.5229086c-.0291837.0671486-.0961083.1957156-.2036645.3650652-.1820661.286667-.4106955.5740655-.68837927.8420709-.82747714.798636-1.90451074 1.2604416-3.27529926 1.2182051-1.33660191-.0411832-2.40882119-.4958625-3.24947006-1.2290629-.30864721-.2691972-.56346628-.5574902-.76714399-.8448524-.12010859-.1694573-.1951051-.2979401-.22790542-.3648929-.07889721-.16104682-.27281955-.22735154-.43313768-.14809571-.16031813.07925581-.22632283.27405961-.14742562.43510651.04752207.0970032.14000499.2554434.28136746.4548871.2321074.3274727.52073431.6540147.87002857.9586635.94897912.8276844 2.16175438 1.341967 3.6538492 1.3879412 1.55378694.0478751 2.79597726-.4847456 3.74343467-1.3991801.316799-.3057573.577208-.6331044.7855752-.9611831.1267037-.1994977.209113-.357812.2511765-.4545956.0714933-.1644983-.0032988-.35607079-.1670529-.42788904-.163754-.07181825-.3544596.00331383-.4259529.16781224z" fill="#59514B"/><g><g transform="translate(8.558069 36.858909)"><mask id="d" fill="#fff"><use xlink:href="#c"/></mask><use fill="#D8A25D" xlink:href="#c"/><g mask="url(#d)" fill="#5C4378"><path d="M-22.666667 45.347826h79v-63h-79z"/></g></g><g transform="translate(3.822775 2.940144)"><mask id="f" fill="#fff"><use xlink:href="#e"/></mask><use fill="#E57F68" xlink:href="#e"/><g mask="url(#f)" fill="#D2654C"><path d="M-1.352941-2.684211h47v53h-47z"/></g></g></g></g></g></svg>
