<svg xmlns="http://www.w3.org/2000/svg" width="33" height="22" fill="none" viewBox="0 0 33 22">
  <path fill="#C30000" fill-rule="evenodd" d="M5.01 11a10.36 10.36 0 1 0 20.73 0A10.36 10.36 0 0 0 5 11Zm-2.9-.72L0 15.52h2.04l2.11-5.24H2.12Zm24.03 5.24 2.09-5.24h1.1l-2.08 5.24h-1.11Zm6.2-5.24-2.1 5.24h.6l2.09-5.24h-.6Z" clip-rule="evenodd"/>
  <path fill="#FEFEFE" fill-rule="evenodd" d="M24.21 10.28h-1.84s-.13 0-.17.11l-1.02 3.12-1.02-3.12c-.05-.11-.17-.11-.17-.11h-3.54a.14.14 0 0 0-.15.14v1.06c0-.84-.9-1.2-1.41-1.2-1.18 0-1.96.77-2.2 1.95-.02-.78-.09-1.06-.3-1.35-.1-.14-.23-.26-.38-.35-.32-.19-.6-.25-1.2-.25h-.7s-.13 0-.18.11L9.29 12v-1.57a.14.14 0 0 0-.14-.14H7.5s-.13 0-.17.11l-.67 1.66s-.07.17.08.17h.63v3.16c0 .08.06.14.14.14h1.63c.07 0 .14-.06.14-.14v-3.16h.63c.36 0 .44 0 .58.07.09.04.16.1.2.18.09.16.11.35.11.92v2c0 .07.06.13.14.13h1.56s.17 0 .24-.17l.35-.85a2.55 2.55 0 0 0 2.15 1.02h.2s.18 0 .25-.17l.6-1.49v1.52c0 .08.07.14.14.14h1.6s.17 0 .24-.17l.64-1.6c.02-.12-.14-.12-.14-.12h-.57v-2.71l1.78 4.43c.07.17.25.17.25.17h1.88s.17 0 .24-.17l1.98-4.9c.07-.17-.13-.17-.13-.17Zm-7.9 3.35h-1.07a.77.77 0 1 1 0-1.54h.3c.42 0 .76.34.76.77v.77Z" clip-rule="evenodd"/>
</svg>