<?xml version="1.0" encoding="UTF-8" standalone="no"?>
<svg width="24px" height="24px" viewBox="0 0 24 24" version="1.1" xmlns="http://www.w3.org/2000/svg" xmlns:xlink="http://www.w3.org/1999/xlink">
    <!-- Generator: Sketch 39.1 (31720) - http://www.bohemiancoding.com/sketch -->
    <title>alarm-new</title>
    <desc>Created with Sketch.</desc>
    <defs></defs>
    <g id="Page-1" stroke="none" stroke-width="1" fill="none" fill-rule="evenodd">
        <g id="Group-2-Copy" transform="translate(1.000000, 1.000000)" stroke-linecap="round" stroke="#3E3832" stroke-linejoin="round">
            <g id="Group-3">
                <path d="M19.1673536,14.4365095 L19.1673536,9.474048 C19.1673536,6.18110031 16.9770176,3.37801846 13.9101056,2.29336615 C13.6996096,0.995328 12.5249536,0 11.1022656,0 C9.6788416,0 8.5005056,0.995328 8.2907456,2.29336615 C5.2238336,3.37801846 3.0364416,6.18110031 3.0364416,9.474048 L3.0364416,14.4365095 C3.0364416,15.9316283 1.7609536,17.1438868 0.1903296,17.1438868 L22.0142016,17.1438868 C20.4398976,17.1438868 19.1673536,15.9316283 19.1673536,14.4365095 L19.1673536,14.4365095 Z" id="Stroke-1-Copy"></path>
                <path d="M13.9792896,19.1409231 C13.9792896,20.6360418 12.7038016,21.8483003 11.1324416,21.8483003 C9.5581376,21.8483003 8.2863296,20.6360418 8.2863296,19.1409231" id="Stroke-3-Copy"></path>
            </g>
        </g>
        <g id="Group-4" transform="translate(10.000000, -1.000000)">
            <path d="M7.34533333,13.335 L7.34533333,13.335 C3.70468522,13.335 0.753672017,10.4479666 0.753672017,6.88625 L0.753672017,6.88625 C0.753672017,3.3245334 3.70468522,0.4375 7.34533333,0.4375 L7.34533333,0.4375 C10.9859814,0.4375 13.9369946,3.3245334 13.9369946,6.88625 L13.9369946,6.88625 C13.9369946,10.4479666 10.9859814,13.335 7.34533333,13.335" id="Fill-6" fill="#C30000"></path>
            <path d="M7.34533333,13.335 L7.34533333,13.335 C3.70468522,13.335 0.753672017,10.4479666 0.753672017,6.88625 L0.753672017,6.88625 C0.753672017,3.3245334 3.70468522,0.4375 7.34533333,0.4375 L7.34533333,0.4375 C10.9859814,0.4375 13.9369946,3.3245334 13.9369946,6.88625 L13.9369946,6.88625 C13.9369946,10.4479666 10.9859814,13.335 7.34533333,13.335 L7.34533333,13.335 Z" id="Stroke-8" stroke="#FFFFFF" stroke-width="1.016"></path>
            <path d="M8.92822382,6.98076381 C8.92822382,7.7841312 8.26311256,8.43482244 7.44194167,8.43482244 C6.62077079,8.43482244 5.95565953,7.7841312 5.95565953,6.98076381 C5.95565953,6.17739642 6.62077079,5.52670519 7.44194167,5.52670519 C8.26311256,5.52670519 8.92822382,6.17739642 8.92822382,6.98076381" id="Fill-10" fill="#FFFFFF"></path>
        </g>
    </g>
</svg>